<?xml version="1.0" encoding="UTF-8" standalone="no"?>
<!-- Created with Inkscape (http://www.inkscape.org/) -->

<svg
   version="1.1"
   id="svg117"
   width="1066.6667"
   height="600"
   viewBox="0 0 1066.6667 600"
   sodipodi:docname="Icone site 1.svg"
   inkscape:version="1.2.1 (9c6d41e410, 2022-07-14)"
   xmlns:inkscape="http://www.inkscape.org/namespaces/inkscape"
   xmlns:sodipodi="http://sodipodi.sourceforge.net/DTD/sodipodi-0.dtd"
   xmlns="http://www.w3.org/2000/svg"
   xmlns:svg="http://www.w3.org/2000/svg">
  <defs
     id="defs121">
    <rect
       x="71.926832"
       y="399.76725"
       width="60.460233"
       height="17.721104"
       id="rect1802" />
    <rect
       x="96.944861"
       y="425.8277"
       width="54.205725"
       height="16.678686"
       id="rect1124" />
  </defs>
  <sodipodi:namedview
     id="namedview119"
     pagecolor="#ffffff"
     bordercolor="#000000"
     borderopacity="0.25"
     inkscape:showpageshadow="2"
     inkscape:pageopacity="0.0"
     inkscape:pagecheckerboard="0"
     inkscape:deskcolor="#d1d1d1"
     showgrid="false"
     inkscape:zoom="0.9593082"
     inkscape:cx="610.85687"
     inkscape:cy="332.5313"
     inkscape:window-width="1920"
     inkscape:window-height="1017"
     inkscape:window-x="-8"
     inkscape:window-y="-8"
     inkscape:window-maximized="1"
     inkscape:current-layer="g123" />
  <g
     inkscape:groupmode="layer"
     inkscape:label="Image"
     id="g123">
    <path
       style="fill:#ecd301;fill-opacity:0.859849;stroke:#068302;stroke-width:2;stroke-dasharray:none;stroke-opacity:1"
       d="m 464.39716,477.42739 c 6.80642,-28.93657 31.07873,-55.74394 41.1755,-101.63575 2.66604,-12.62278 4.38923,-40.85896 -1.04242,-73.49045 -5.24153,-8.94887 -8.45169,-11.80367 -16.15747,-28.14529 -6.06921,-17.74037 -8.46237,-41.6075 -10.42418,-66.19353 -6.25319,-18.0516 -21.24636,-33.48121 -15.11506,-55.24815 l 5.21209,-0.52121 c -0.71485,-18.14989 -4.23327,-76.928646 78.18134,-87.563106 30.53967,5.45489 62.40695,1.39524 84.95705,64.108706 h 7.81814 l 4.16967,17.72111 c -8.45317,29.776 -13.84277,55.87573 -28.66649,93.29639 -4.72031,29.36144 -12.67852,58.72287 -27.10287,88.08431 -1.56758,16.67156 -4.53109,30.83047 0.52121,59.41782 20.99864,32.08771 32.21825,56.35218 46.90881,83.39343 l 1.04242,7.29693 z"
       id="path289"
       sodipodi:nodetypes="ccccccccccccccccc" />
    <path
       style="fill:#40882b;fill-opacity:0;stroke:#007e14;stroke-width:1.9;stroke-dasharray:none;stroke-opacity:1"
       d="m 468.04562,155.32027 c 0.36698,10.00297 3.42746,19.63865 33.87858,25.53924 12.63518,-6.81446 30.18525,-3.9873 40.6543,-27.10287 6.19191,-13.00936 4.66856,-22.40454 3.12725,-32.83616 2.11963,0.48649 -5.69271,-5.64834 -11.4666,-10.42419 3.64846,-2.96077 7.29693,-6.94612 10.94539,-0.52121 -0.0181,-3.08771 4.53028,0.31518 11.4666,8.33935 4.7939,16.16708 7.28622,34.06034 17.19989,46.3876 4.42442,1.01721 2.93868,2.38208 29.70891,2.08483 10.42418,-8.61435 20.84836,-15.91366 31.27254,-33.87858 -20.45045,-25.41209 -11.15611,-60.078096 -88.60552,-67.757166 -62.78927,8.17538 -80.48913,43.212536 -78.18134,90.169156 z"
       id="path1064"
       sodipodi:nodetypes="cccccccccccc" />
    <path
       style="fill:#05a701;fill-opacity:0.859849;stroke:none;stroke-opacity:1"
       d="m 488.37277,427.39133 123.00531,-0.52121 -8.86056,-17.19989 -107.89024,1.04241 z"
       id="path1066" />
    <path
       style="fill:#05a701;fill-opacity:0.859849;stroke:none;stroke-opacity:1"
       d="m 474.82134,451.36694 148.02333,0.52121 10.94539,18.24231 H 467.52441 Z"
       id="path1068" />
    <text
       xml:space="preserve"
       id="text1122"
       style="font-style:normal;font-variant:normal;font-weight:normal;font-stretch:normal;font-family:'Adobe Heiti Std';-inkscape-font-specification:'Adobe Heiti Std';text-align:center;white-space:pre;shape-inside:url(#rect1124);display:inline;fill:#000000;fill-opacity:0.958333;stroke:#000000;stroke-opacity:1"
       x="22.851562"
       y="0"
       transform="matrix(2.1973285,0,0,1.5188692,264.49812,-463.79628)"><tspan
         x="110.61986"
         y="437.88813"
         id="tspan15516">INFO</tspan></text>
    <text
       xml:space="preserve"
       id="text1800"
       style="font-style:normal;font-variant:normal;font-weight:normal;font-stretch:normal;font-family:'Adobe Heiti Std';-inkscape-font-specification:'Adobe Heiti Std';text-align:center;white-space:pre;shape-inside:url(#rect1802);display:inline;fill:#000000;fill-opacity:0.958333;stroke:#000000;stroke-opacity:1"
       transform="matrix(1.9249791,0,0,1.4720322,337.49455,-385.62756)"><tspan
         x="81.263783"
         y="411.82758"
         id="tspan15518">SELEÇA</tspan></text>
    <path
       sodipodi:type="star"
       style="fill:#ffffff;fill-opacity:1;stroke:#000000;stroke-opacity:1"
       id="path3320"
       inkscape:flatsided="false"
       sodipodi:sides="5"
       sodipodi:cx="76.617714"
       sodipodi:cy="276.76193"
       sodipodi:r1="22.418043"
       sodipodi:r2="10.120047"
       sodipodi:arg1="2.1910458"
       sodipodi:arg2="2.8193644"
       inkscape:rounded="0"
       inkscape:randomized="0"
       d="m 63.587491,295.00424 3.431034,-15.03748 -11.776841,-9.96012 15.361747,-1.38373 5.833392,-14.27829 6.063049,14.18229 15.382076,1.13565 -11.614578,10.14888 3.673254,14.98016 -13.241252,-7.90995 z"
       inkscape:transform-center-x="-0.023604596"
       inkscape:transform-center-y="-0.26992933"
       transform="matrix(0.14499922,0,0,0.151878,59.20314,223.99449)" />
    <path
       sodipodi:type="star"
       style="fill:#f5ff15;fill-opacity:1;stroke:#000000;stroke-opacity:1"
       id="path3320-9"
       inkscape:flatsided="false"
       sodipodi:sides="5"
       sodipodi:cx="76.617714"
       sodipodi:cy="276.76193"
       sodipodi:r1="20.240093"
       sodipodi:r2="10.120047"
       sodipodi:arg1="0.96850898"
       sodipodi:arg2="1.5968275"
       inkscape:rounded="0"
       inkscape:randomized="0"
       d="m 88.08431,293.44062 -11.730003,-6.56207 -12.055592,5.94276 2.616126,-13.18369 -9.377284,-9.62913 13.346859,-1.5859 6.260112,-11.89389 5.632685,12.20354 13.246246,2.27831 -9.865667,9.1281 z"
       inkscape:transform-center-x="-0.068759769"
       inkscape:transform-center-y="-0.77977117"
       transform="matrix(0.42237081,0,0,0.43874525,556.2718,148.33913)" />
    <path
       sodipodi:type="star"
       style="fill:#f5ff15;fill-opacity:1;stroke:#000000;stroke-opacity:1"
       id="path3320-9-7"
       inkscape:flatsided="false"
       sodipodi:sides="5"
       sodipodi:cx="76.617714"
       sodipodi:cy="276.76193"
       sodipodi:r1="20.240093"
       sodipodi:r2="10.120047"
       sodipodi:arg1="0.96850898"
       sodipodi:arg2="1.5968275"
       inkscape:rounded="0"
       inkscape:randomized="0"
       d="m 88.08431,293.44062 -11.730003,-6.56207 -12.055592,5.94276 2.616126,-13.18369 -9.377284,-9.62913 13.346859,-1.5859 6.260112,-11.89389 5.632685,12.20354 13.246246,2.27831 -9.865667,9.1281 z"
       inkscape:transform-center-x="-0.068759769"
       inkscape:transform-center-y="-0.77977117"
       transform="matrix(0.42237081,0,0,0.43874525,479.9147,147.29671)" />
    <path
       sodipodi:type="star"
       style="fill:#f5ff15;fill-opacity:1;stroke:#000000;stroke-opacity:1"
       id="path3320-6"
       inkscape:flatsided="false"
       sodipodi:sides="5"
       sodipodi:cx="76.617714"
       sodipodi:cy="276.76193"
       sodipodi:r1="20.240093"
       sodipodi:r2="10.120047"
       sodipodi:arg1="0.96850898"
       sodipodi:arg2="1.5968275"
       inkscape:rounded="0"
       inkscape:randomized="0"
       d="m 88.08431,293.44062 -11.730003,-6.56207 -12.055592,5.94276 2.616126,-13.18369 -9.377284,-9.62913 13.346859,-1.5859 6.260112,-11.89389 5.632685,12.20354 13.246246,2.27831 -9.865667,9.1281 z"
       inkscape:transform-center-x="-0.11709348"
       inkscape:transform-center-y="-1.1804655"
       transform="matrix(0.71926266,0,0,0.66419751,495.16475,58.480892)" />
    <path
       sodipodi:type="star"
       style="fill:#f5ff15;fill-opacity:1;stroke:#000000;stroke-opacity:1"
       id="path3320-6-5"
       inkscape:flatsided="false"
       sodipodi:sides="5"
       sodipodi:cx="76.617714"
       sodipodi:cy="276.76193"
       sodipodi:r1="20.240093"
       sodipodi:r2="10.120047"
       sodipodi:arg1="0.96850898"
       sodipodi:arg2="1.5968275"
       inkscape:rounded="0"
       inkscape:randomized="0"
       d="m 88.08431,293.44062 -11.730003,-6.56207 -12.055592,5.94276 2.616126,-13.18369 -9.377284,-9.62913 13.346859,-1.5859 6.260112,-11.89389 5.632685,12.20354 13.246246,2.27831 -9.865667,9.1281 z"
       inkscape:transform-center-x="-0.089743258"
       inkscape:transform-center-y="-0.94640194"
       transform="matrix(0.55121982,0,0,0.53249922,531.26249,107.97366)" />
    <path
       sodipodi:type="star"
       style="fill:#f5ff15;fill-opacity:1;stroke:#000000;stroke-opacity:1"
       id="path3320-6-5-3"
       inkscape:flatsided="false"
       sodipodi:sides="5"
       sodipodi:cx="76.617714"
       sodipodi:cy="276.76193"
       sodipodi:r1="20.240093"
       sodipodi:r2="10.120047"
       sodipodi:arg1="0.96850898"
       sodipodi:arg2="1.5968275"
       inkscape:rounded="0"
       inkscape:randomized="0"
       d="m 88.08431,293.44062 -11.730003,-6.56207 -12.055592,5.94276 2.616126,-13.18369 -9.377284,-9.62913 13.346859,-1.5859 6.260112,-11.89389 5.632685,12.20354 13.246246,2.27831 -9.865667,9.1281 z"
       inkscape:transform-center-x="-0.089743258"
       inkscape:transform-center-y="-0.94640194"
       transform="matrix(0.55121982,0,0,0.53249922,485.6567,108.49488)" />
    <ellipse
       style="fill:#0000b2;fill-opacity:1;stroke:#000000;stroke-opacity:1"
       id="path8779"
       cx="548.31177"
       cy="297.3497"
       rx="29.708908"
       ry="26.84226" />
    <path
       sodipodi:type="star"
       style="fill:#ffffff;fill-opacity:1;stroke:#000000;stroke-opacity:1"
       id="path3320-4"
       inkscape:flatsided="false"
       sodipodi:sides="5"
       sodipodi:cx="76.617714"
       sodipodi:cy="276.76193"
       sodipodi:r1="22.418043"
       sodipodi:r2="10.120047"
       sodipodi:arg1="2.1910458"
       sodipodi:arg2="2.8193644"
       inkscape:rounded="0"
       inkscape:randomized="0"
       d="m 63.587491,295.00424 3.431034,-15.03748 -11.776841,-9.96012 15.361747,-1.38373 5.833392,-14.27829 6.063049,14.18229 15.382076,1.13565 -11.614578,10.14888 3.673254,14.98016 -13.241252,-7.90995 z"
       inkscape:transform-center-x="-0.015057563"
       inkscape:transform-center-y="-0.20629156"
       transform="matrix(0.09252392,0,0,0.11607155,551.00095,261.57276)" />
    <path
       sodipodi:type="star"
       style="fill:#ffffff;fill-opacity:1;stroke:#000000;stroke-opacity:1"
       id="path3320-8"
       inkscape:flatsided="false"
       sodipodi:sides="5"
       sodipodi:cx="76.617714"
       sodipodi:cy="276.76193"
       sodipodi:r1="22.418043"
       sodipodi:r2="10.120047"
       sodipodi:arg1="2.1910458"
       sodipodi:arg2="2.8193644"
       inkscape:rounded="0"
       inkscape:randomized="0"
       d="m 63.587491,295.00424 3.431034,-15.03748 -11.776841,-9.96012 15.361747,-1.38373 5.833392,-14.27829 6.063049,14.18229 15.382076,1.13565 -11.614578,10.14888 3.673254,14.98016 -13.241252,-7.90995 z"
       inkscape:transform-center-x="-0.029322135"
       inkscape:transform-center-y="-0.31224748"
       transform="matrix(0.18011289,0,0,0.1756875,547.81343,233.21717)" />
    <path
       sodipodi:type="star"
       style="fill:#ffffff;fill-opacity:1;stroke:#000000;stroke-opacity:1"
       id="path3320-1"
       inkscape:flatsided="false"
       sodipodi:sides="5"
       sodipodi:cx="180.86006"
       sodipodi:cy="194.39967"
       sodipodi:r1="22.418043"
       sodipodi:r2="10.120047"
       sodipodi:arg1="2.1910458"
       sodipodi:arg2="2.8193644"
       inkscape:rounded="0"
       inkscape:randomized="0"
       d="m 167.82984,212.64199 3.43103,-15.03749 -11.77684,-9.96012 15.36175,-1.38373 5.83339,-14.27829 6.06305,14.18229 15.38208,1.13566 -11.61458,10.14887 3.67325,14.98016 -13.24125,-7.90995 z"
       inkscape:transform-center-x="-0.026617157"
       inkscape:transform-center-y="-0.23585136"
       transform="matrix(0.16348025,0,0,0.13269814,518.1029,260.24934)" />
    <path
       sodipodi:type="star"
       style="fill:#ffffff;fill-opacity:1;stroke:#000000;stroke-opacity:1"
       id="path3320-13"
       inkscape:flatsided="false"
       sodipodi:sides="5"
       sodipodi:cx="76.617714"
       sodipodi:cy="276.76193"
       sodipodi:r1="22.418043"
       sodipodi:r2="10.120047"
       sodipodi:arg1="2.1910458"
       sodipodi:arg2="2.8193644"
       inkscape:rounded="0"
       inkscape:randomized="0"
       d="m 63.587491,295.00424 3.431034,-15.03748 -11.776841,-9.96012 15.361747,-1.38373 5.833392,-14.27829 6.063049,14.18229 15.382076,1.13565 -11.614578,10.14888 3.673254,14.98016 -13.241252,-7.90995 z"
       inkscape:transform-center-x="-0.019843465"
       inkscape:transform-center-y="-0.22685547"
       transform="matrix(0.12188974,0,0,0.1276411,543.14976,283.93553)" />
    <path
       sodipodi:type="star"
       style="fill:#ffffff;fill-opacity:1;stroke:#000000;stroke-opacity:1"
       id="path3320-5"
       inkscape:flatsided="false"
       sodipodi:sides="5"
       sodipodi:cx="76.617714"
       sodipodi:cy="276.76193"
       sodipodi:r1="22.418043"
       sodipodi:r2="10.120047"
       sodipodi:arg1="2.1910458"
       sodipodi:arg2="2.8193644"
       inkscape:rounded="0"
       inkscape:randomized="0"
       d="m 63.587491,295.00424 3.431034,-15.03748 -11.776841,-9.96012 15.361747,-1.38373 5.833392,-14.27829 6.063049,14.18229 15.382076,1.13565 -11.614578,10.14888 3.673254,14.98016 -13.241252,-7.90995 z"
       inkscape:transform-center-x="-0.018903932"
       inkscape:transform-center-y="-0.21608838"
       transform="matrix(0.11611237,0,0,0.12158187,515.57709,266.70529)" />
    <path
       sodipodi:type="star"
       style="fill:#ffffff;fill-opacity:1;stroke:#000000;stroke-opacity:1"
       id="path3320-41"
       inkscape:flatsided="false"
       sodipodi:sides="5"
       sodipodi:cx="76.617714"
       sodipodi:cy="276.76193"
       sodipodi:r1="22.418043"
       sodipodi:r2="10.120047"
       sodipodi:arg1="2.1910458"
       sodipodi:arg2="2.8193644"
       inkscape:rounded="0"
       inkscape:randomized="0"
       d="m 63.587491,295.00424 3.431034,-15.03748 -11.776841,-9.96012 15.361747,-1.38373 5.833392,-14.27829 6.063049,14.18229 15.382076,1.13565 -11.614578,10.14888 3.673254,14.98016 -13.241252,-7.90995 z"
       inkscape:transform-center-x="-0.014200033"
       inkscape:transform-center-y="-0.16223742"
       transform="matrix(0.08722553,0,0,0.09128574,527.8219,280.88681)" />
    <path
       sodipodi:type="star"
       style="fill:#ffffff;fill-opacity:1;stroke:#000000;stroke-opacity:1"
       id="path3320-0"
       inkscape:flatsided="false"
       sodipodi:sides="5"
       sodipodi:cx="76.617714"
       sodipodi:cy="276.76193"
       sodipodi:r1="22.418043"
       sodipodi:r2="10.120047"
       sodipodi:arg1="2.1910458"
       sodipodi:arg2="2.8193644"
       inkscape:rounded="0"
       inkscape:randomized="0"
       d="m 63.587491,295.00424 3.431034,-15.03748 -11.776841,-9.96012 15.361747,-1.38373 5.833392,-14.27829 6.063049,14.18229 15.382076,1.13565 -11.614578,10.14888 3.673254,14.98016 -13.241252,-7.90995 z"
       inkscape:transform-center-x="-0.029306103"
       inkscape:transform-center-y="-0.31239464"
       transform="matrix(0.18000361,0,0,0.17577084,529.57949,266.29105)" />
    <path
       sodipodi:type="star"
       style="fill:#ffffff;fill-opacity:1;stroke:#000000;stroke-opacity:1"
       id="path3320-2"
       inkscape:flatsided="false"
       sodipodi:sides="5"
       sodipodi:cx="76.617714"
       sodipodi:cy="276.76193"
       sodipodi:r1="22.418043"
       sodipodi:r2="10.120047"
       sodipodi:arg1="2.1910458"
       sodipodi:arg2="2.8193644"
       inkscape:rounded="0"
       inkscape:randomized="0"
       d="m 63.587491,295.00424 3.431034,-15.03748 -11.776841,-9.96012 15.361747,-1.38373 5.833392,-14.27829 6.063049,14.18229 15.382076,1.13565 -11.614578,10.14888 3.673254,14.98016 -13.241252,-7.90995 z"
       inkscape:transform-center-x="-0.0190195"
       inkscape:transform-center-y="-0.17183601"
       transform="matrix(0.11682042,0,0,0.09668589,520.73498,285.26778)" />
    <path
       sodipodi:type="star"
       style="fill:#ffffff;fill-opacity:1;stroke:#000000;stroke-opacity:1"
       id="path3320-53"
       inkscape:flatsided="false"
       sodipodi:sides="5"
       sodipodi:cx="76.617714"
       sodipodi:cy="276.76193"
       sodipodi:r1="22.418043"
       sodipodi:r2="10.120047"
       sodipodi:arg1="2.1910458"
       sodipodi:arg2="2.8193644"
       inkscape:rounded="0"
       inkscape:randomized="0"
       d="m 63.587491,295.00424 3.431034,-15.03748 -11.776841,-9.96012 15.361747,-1.38373 5.833392,-14.27829 6.063049,14.18229 15.382076,1.13565 -11.614578,10.14888 3.673254,14.98016 -13.241252,-7.90995 z"
       inkscape:transform-center-x="-0.016161505"
       inkscape:transform-center-y="-0.16137616"
       transform="matrix(0.09925878,0,0,0.09080246,563.90648,271.11653)" />
    <path
       sodipodi:type="star"
       style="fill:#ffffff;fill-opacity:1;stroke:#000000;stroke-opacity:1"
       id="path3320-7"
       inkscape:flatsided="false"
       sodipodi:sides="5"
       sodipodi:cx="76.617714"
       sodipodi:cy="276.76193"
       sodipodi:r1="22.418043"
       sodipodi:r2="10.120047"
       sodipodi:arg1="2.1910458"
       sodipodi:arg2="2.8193644"
       inkscape:rounded="0"
       inkscape:randomized="0"
       d="m 63.587491,295.00424 3.431034,-15.03748 -11.776841,-9.96012 15.361747,-1.38373 5.833392,-14.27829 6.063049,14.18229 15.382076,1.13565 -11.614578,10.14888 3.673254,14.98016 -13.241252,-7.90995 z"
       inkscape:transform-center-x="-0.018896932"
       inkscape:transform-center-y="-0.21608838"
       transform="matrix(0.11611237,0,0,0.12158187,540.3345,243.25088)" />
    <path
       style="fill:#ffffff;fill-opacity:1;stroke:#000000;stroke-opacity:1"
       d="m 531.1119,276.76195 c 6.94241,16.99563 29.63252,26.38022 45.34517,30.23012 -2.12767,7.16843 -5.94414,9.27045 -9.38176,12.50901 -17.51225,-6.38771 -25.64789,-5.92025 -46.38759,-30.23011 0.88848,-4.82797 5.17704,-12.62229 10.42418,-12.50902 z"
       id="path9620"
       sodipodi:nodetypes="ccccc" />
  </g>
</svg>
