<?xml version="1.0" encoding="UTF-8" standalone="no"?>
<!-- Created with Inkscape (http://www.inkscape.org/) -->

<svg
   version="1.1"
   id="svg1047"
   width="900"
   height="550.66669"
   viewBox="0 0 900 550.66669"
   sodipodi:docname="olho manga.svg"
   inkscape:version="1.2.1 (9c6d41e410, 2022-07-14)"
   xmlns:inkscape="http://www.inkscape.org/namespaces/inkscape"
   xmlns:sodipodi="http://sodipodi.sourceforge.net/DTD/sodipodi-0.dtd"
   xmlns="http://www.w3.org/2000/svg"
   xmlns:svg="http://www.w3.org/2000/svg">
  <defs
     id="defs1051" />
  <sodipodi:namedview
     id="namedview1049"
     pagecolor="#ffffff"
     bordercolor="#000000"
     borderopacity="0.25"
     inkscape:showpageshadow="2"
     inkscape:pageopacity="0.0"
     inkscape:pagecheckerboard="0"
     inkscape:deskcolor="#d1d1d1"
     showgrid="false"
     inkscape:zoom="0.48593949"
     inkscape:cx="382.7637"
     inkscape:cy="226.36563"
     inkscape:window-width="1920"
     inkscape:window-height="1017"
     inkscape:window-x="-8"
     inkscape:window-y="-8"
     inkscape:window-maximized="1"
     inkscape:current-layer="g1053" />
  <g
     inkscape:groupmode="layer"
     inkscape:label="Image"
     id="g1053">
    <path
       style="fill:#000000;stroke:#000000;stroke-width:3.3;stroke-opacity:1;fill-opacity:1"
       d="m 56.022636,173.16087 87.121174,-28.43602 94.04294,-14.49042 79.70988,-11.5922 106.54719,-5.14183 141.8755,5.09297 157.15441,24.0097 120.0485,30.5578 -0.72756,5.82053 c 0,0 -109.25651,-18.78265 -164.43007,-23.28213 -120.40581,-9.81926 -242.16123,-20.40768 -362.32822,-8.00323 -34.5848,3.57008 -84.84673,8.52537 -127.55742,19.46086 -45.67201,11.69369 -82.70935,29.2861 -82.70935,29.2861 l 50.55019,71.71635 52.70608,58.56793 70.63217,63.24846 -5.82054,2.91027 -83.35664,-58.04677 -64.3394,-60.5466 -39.598737,-48.30469 z"
       id="path1057"
       sodipodi:nodetypes="cccccccccsssccccccccc" />
    <path
       style="fill:#ffffff;stroke:#000000;stroke-width:3.3;stroke-opacity:1;fill-opacity:1"
       d="m 314.30881,149.87874 c 4.68136,44.74341 9.06699,89.2231 24.99562,127.8181 5.75308,13.93967 11.11398,27.11169 21.21156,39.25121 l 20.5893,26.58904 32.76998,25.52507 c 24.49098,15.31819 52.57167,21.66208 80.87008,27.46169 26.70352,-3.15124 53.40705,-6.29082 80.11057,-24.5906 13.44533,-8.96416 27.44889,-18.93314 50.414,-45.0329 17.64835,-22.81093 26.86523,-47.72972 37.04427,-72.40798 10.52743,-30.09622 14.93575,-62.64009 15.77797,-96.6104 l -125.86395,-8.8193 -66.91864,-3.12103 -91.69594,-1.15313 z"
       id="path1593"
       sodipodi:nodetypes="cscccccccccccc" />
    <path
       style="fill:#000000;stroke:#000000;stroke-width:3.3;stroke-opacity:1;fill-opacity:1"
       d="m 320.85691,412.53032 c 158.91742,16.58115 284.38431,7.83515 416.89572,3.63783 -65.94094,10.45357 -141.88114,15.97507 -223.36297,16.73403 -58.88643,-1.62957 -133.80537,-3.3081 -193.53275,-20.37186 z"
       id="path1595"
       sodipodi:nodetypes="cccc" />
    <path
       style="fill:#95ffb6;fill-opacity:1;stroke:#000000;stroke-width:3.3;stroke-opacity:1"
       d="m 332.49798,151.33388 c 8.93155,122.90223 51.49889,209.5372 162.97494,224.09053 124.82813,-5.39162 149.96666,-126.75999 161.85773,-214.1177 -78.75214,-14.02554 -216.32842,-19.74741 -324.83267,-9.97283 z"
       id="path1597"
       sodipodi:nodetypes="cccc" />
    <ellipse
       style="fill:#ffffff;stroke:#000000;stroke-width:3.65646;stroke-opacity:1;fill-opacity:1"
       id="path2377"
       cx="413.98544"
       cy="210.99435"
       rx="34.017403"
       ry="33.289837" />
    <ellipse
       style="fill:#ffffff;stroke:#000000;stroke-width:2.26918;stroke-opacity:1;fill-opacity:1"
       id="path2377-0"
       cx="573.68634"
       cy="281.2045"
       rx="21.251057"
       ry="20.523489" />
    <path
       style="fill:#3b7213;fill-opacity:1;stroke:#000000;stroke-width:3.3;stroke-opacity:1"
       d="m 340.35053,199.11432 38.71172,-1.21618 c 0.21659,24.61718 16.22522,41.71968 32.82877,47.41667 l 11.89072,-1.73065 c 11.19617,22.58166 26.88992,44.68599 69.50848,51.08035 51.69962,-0.65633 77.2689,-45.05635 90.58206,-100.76799 l 67.29991,7.27567 4.7916,-37.319 c -39.79901,-7.85033 -97.15761,-12.77281 -163.03735,-15.79337 -56.91628,-0.62872 -106.31203,2.76007 -157.73129,4.87987 z"
       id="path2403"
       sodipodi:nodetypes="ccccccccccc" />
    <path
       style="fill:#000000;fill-opacity:1;stroke:#000000;stroke-width:3.3;stroke-opacity:1"
       d="m 435.81245,240.09701 c 13.79351,17.98657 23.99061,38.09829 58.20534,44.01778 28.11098,-0.41792 65.35463,-34.54412 79.30476,-97.13015 4.59852,-1.32447 8.85337,3.39044 7.63946,7.8784 -2.18878,-11.46348 -3.08305,81.36056 -80.39612,97.98255 -37.00093,0.5118 -63.21677,-22.07071 -72.75667,-48.38318 z"
       id="path2405"
       sodipodi:nodetypes="ccccccc" />
    <path
       style="fill:#ffffff;fill-opacity:1;stroke:#000000;stroke-width:3.3;stroke-opacity:1"
       d="m 382.7637,201.15673 c 8.45458,-12.37786 17.1529,-19.2698 32.41145,-22.1221 20.22779,6.23124 33.60031,18.72407 29.8391,40.12846 -9.24959,23.41225 -19.31922,22.53063 -32.41144,23.6655 -23.98595,-3.0058 -29.00888,-18.23453 -29.83911,-41.67186 z"
       id="path2515"
       sodipodi:nodetypes="ccccc" />
    <path
       style="fill:#000000;fill-opacity:1;stroke:#000000;stroke-width:3.3;stroke-opacity:1"
       d="m 316.39742,152.7968 c 16.46456,117.73547 30.73551,237.28788 179.5491,245.40092 213.44745,-40.31895 169.32197,-251.83051 181.60697,-240.25625 l -20.57869,0.51447 C 645.68074,263.65204 621.73542,358.974 499.54779,377.61903 356.97491,359.09581 362.03638,240.37013 331.31697,153.31127 Z"
       id="path2631"
       sodipodi:nodetypes="ccccccc" />
  </g>
</svg>
